<?xml version="1.0" encoding="UTF-8" standalone="no"?>
<!-- Created with Inkscape (http://www.inkscape.org/) -->

<svg
   xmlns:dc="http://purl.org/dc/elements/1.1/"
   xmlns:cc="http://creativecommons.org/ns#"
   xmlns:rdf="http://www.w3.org/1999/02/22-rdf-syntax-ns#"
   xmlns:svg="http://www.w3.org/2000/svg"
   xmlns="http://www.w3.org/2000/svg"
   xmlns:sodipodi="http://sodipodi.sourceforge.net/DTD/sodipodi-0.dtd"
   xmlns:inkscape="http://www.inkscape.org/namespaces/inkscape"
   version="1.1"
   id="svg2"
   xml:space="preserve"
   width="2666.6667"
   height="1001.3333"
   viewBox="0 0 2666.6667 1001.3333"
   sodipodi:docname="final_inverted_ohne_Text.svg"
   inkscape:version="0.92.2 (5c3e80d, 2017-08-06)"
   inkscape:export-filename="C:\Users\naumann\Desktop\Logo\Weiß\final_inverted_ohne_Text_med_quali.png"
   inkscape:export-xdpi="200.00612"
   inkscape:export-ydpi="200.00612"><metadata
     id="metadata8"><rdf:RDF><cc:Work
         rdf:about=""><dc:format>image/svg+xml</dc:format><dc:type
           rdf:resource="http://purl.org/dc/dcmitype/StillImage" /><dc:title></dc:title></cc:Work></rdf:RDF></metadata><defs
     id="defs6" /><sodipodi:namedview
     pagecolor="#ffffff"
     bordercolor="#666666"
     borderopacity="1"
     objecttolerance="10"
     gridtolerance="10"
     guidetolerance="10"
     inkscape:pageopacity="0"
     inkscape:pageshadow="2"
     inkscape:window-width="1366"
     inkscape:window-height="705"
     id="namedview4"
     showgrid="false"
     inkscape:pagecheckerboard="true"
     inkscape:zoom="0.32662499"
     inkscape:cx="1286.1972"
     inkscape:cy="383.49588"
     inkscape:window-x="-8"
     inkscape:window-y="-8"
     inkscape:window-maximized="1"
     inkscape:current-layer="g10"
     inkscape:snap-nodes="true"
     inkscape:snap-object-midpoints="true"
     inkscape:snap-bbox="true"
     inkscape:snap-bbox-edge-midpoints="false"
     inkscape:snap-smooth-nodes="true" /><g
     id="g10"
     inkscape:groupmode="layer"
     inkscape:label="ink_ext_XXXXXX"
     transform="matrix(1.3333333,0,0,-1.3333333,0,1001.3333)"><g
       transform="matrix(0.122699,0,0,0.122699,-27.779197,-59.093927)"
       id="g14"
       style="display:inline"
       inkscape:label="g14" /><g
       transform="matrix(0.110704,0,0,0.110704,-27.779197,-59.093927)"
       id="g18"
       style="fill:#ffffff;fill-opacity:1;stroke:none"><path
         style="color:#000000;font-style:normal;font-variant:normal;font-weight:normal;font-stretch:normal;font-size:medium;line-height:normal;font-family:sans-serif;font-variant-ligatures:normal;font-variant-position:normal;font-variant-caps:normal;font-variant-numeric:normal;font-variant-alternates:normal;font-feature-settings:normal;text-indent:0;text-align:start;text-decoration:none;text-decoration-line:none;text-decoration-style:solid;text-decoration-color:#000000;letter-spacing:normal;word-spacing:normal;text-transform:none;writing-mode:lr-tb;direction:ltr;text-orientation:mixed;dominant-baseline:auto;baseline-shift:baseline;text-anchor:start;white-space:normal;shape-padding:0;clip-rule:nonzero;display:inline;overflow:visible;visibility:visible;opacity:1;isolation:auto;mix-blend-mode:normal;color-interpolation:sRGB;color-interpolation-filters:linearRGB;solid-color:#000000;solid-opacity:1;vector-effect:none;fill:#ffffff;fill-opacity:1;fill-rule:nonzero;stroke:none;stroke-width:9.03083897;stroke-linecap:butt;stroke-linejoin:miter;stroke-miterlimit:10;stroke-dasharray:none;stroke-dashoffset:0;stroke-opacity:1;color-rendering:auto;image-rendering:auto;shape-rendering:auto;text-rendering:auto;enable-background:accumulate"
         d="m 15119.789,917.80273 c -59.668,0.46622 -113.005,4.07404 -157.06,11.73829 l 7.742,44.5 c 160.876,-27.98701 488.179,4.00779 771.355,44.36518 258.937,36.903 473.549,78.178 509.975,85.2735 1.473,10.9045 -1.109,14.9714 -3.668,17.7187 -3.401,3.6511 -12.959,7.5192 -26.514,8.3047 -27.11,1.571 -61.982,-8.0996 -61.982,-8.0996 l -29.123,-8.6601 0.103,30.3828 c 0.309,91.0103 16.838,368.0195 16.838,368.0195 l 0.904,15.2578 14.502,4.832 c 42.299,14.0933 69.101,28.6126 84.959,39.127 6.967,4.6189 11.247,7.9506 14.2,10.4414 l 0.193,377.9746 -46.971,93.8262 5.863,10.4492 c 5.351,9.5335 12.86,43.3436 16.096,84.0332 3.236,40.6896 3.993,89.5951 3.33,136.7598 -0.662,47.1646 -2.727,92.6685 -5.01,126.8554 -1.141,17.0935 -2.341,31.3867 -3.416,41.4434 -0.537,5.0283 -1.054,9.0297 -1.449,11.5039 -0.05,0.3216 -0.06,0.3214 -0.107,0.5879 -87.221,149.9184 -271.928,266.6185 -435.938,343.9023 -164.903,77.7051 -307.205,116.1993 -307.205,116.1993 l -0.949,0.2558 -0.922,0.3379 c -783.312,286.8244 -2383.948,462.4863 -3132.74,515.8203 v 0 c -235.882,16.8218 -433.311,-4.0918 -433.311,-4.0918 l -9.082,-0.9629 -7.199,5.6211 C 10839.459,4272.0832 9541.7678,4681.7501 9536.7324,4683.3379 7784.8,5060.4549 6258.375,4848.5555 5153.8965,4533.8711 4601.539,4376.4952 4154.7692,4193.416 3838.291,4045.5156 c -158.2391,-73.9502 -283.9016,-139.1026 -373.9355,-187.8633 -90.034,-48.7607 -142.9701,-80.3621 -161.0078,-89.9941 l -3.9082,-2.0859 -4.4063,-0.4571 C 2871.6075,3721.3243 2276.8594,3613.002 2276.8594,3613.002 l -4.7969,-0.8731 -377.1895,94.2695 20.9864,-73.4199 -59.9883,-119.957 15.8691,-431.4922 61.3438,-14.7949 V 2715.832 l -78.9649,-65.1308 -122.7714,-320.2344 h -102.3594 c -78.8005,-277.0798 -39.4512,-523.791 -39.4512,-523.791 l 0.2871,-1.7813 v -55.0996 c 112.4428,-111.9016 130.0413,-269.0229 132.7969,-322.4844 l 1901.3555,-246.705 -5.8125,-44.791 -1940.1368,251.7363 0.1895,20.0332 c 0,0 0.1738,196.8901 -126.4746,316.3789 l -7.086,6.6855 v 70.9102 c -1.7232,11.0303 -40.7652,269.7318 45.6915,557.9805 l 4.8281,16.0957 h 105.1152 l 115.9102,302.3437 71.7148,59.1485 v 294.039 l -60.0547,14.4844 -17.5527,477.248 57.293,114.5625 -37.6543,131.7207 443.6699,-110.8847 c 14.1567,2.5763 590.8737,107.3354 1012.0117,151.2246 16.0621,8.7919 69.653,40.4247 157.2168,87.8476 90.6945,49.1185 217.1739,114.6913 376.3223,189.0664 318.2968,148.7503 767.289,332.7265 1322.3515,490.8731 1110.1251,316.2932 2644.7598,529.2692 4405.8457,149.9492 l 1.0235,-0.2207 0.998,-0.3144 c 0,0 1301.6883,-409.1215 2374.5393,-1244.1407 23.95,2.3753 207.498,19.4395 432.078,3.4239 750.981,-53.4899 2347.797,-226.7811 3144.328,-518.1973 3.215,-0.8727 146.649,-39.9742 313.531,-118.6113 168.771,-79.5275 362.055,-198.5439 457.33,-364.7344 l 0.01,-0.021 0.01,-0.022 c 2.911,-5.1032 2.601,-6.2647 3.021,-8.0703 0.421,-1.8056 0.72,-3.4863 1.022,-5.3789 0.604,-3.7852 1.17,-8.3257 1.758,-13.8262 1.175,-11.001 2.4,-25.7151 3.57,-43.2324 2.339,-35.0346 4.43,-81.1588 5.105,-129.2305 0.675,-48.0716 -0.05,-98.012 -3.466,-140.9765 -2.928,-36.8059 -6.563,-67.4568 -16.332,-91.1836 l 41.492,-82.8789 -0.207,-406.2988 -5.18,-6.2598 c 0,0 -9.779,-11.2755 -29.221,-24.166 -17.285,-11.4606 -43.378,-25.5469 -81.056,-39.2325 -1.344,-22.9923 -12.88,-221.8656 -15.371,-322.08 13.755,2.3375 30.678,4.1863 47.88,3.1894 19.47,-1.1282 41.098,-5.5876 56.954,-22.6113 15.855,-17.0237 19.728,-44.0844 11.125,-74.1133 l -3.799,-13.2598 -13.532,-2.6757 c 0,0 -242.232,-47.8903 -526.781,-88.44339 -213.411,-30.4148 -449.406,-57.28732 -628.41,-55.88868 z m 1110.604,1547.50197 c -0.04,0.2213 -0.135,0.7543 -0.147,0.8066 -0.02,0.083 -0.09,-0.085 0.147,-0.8066 z"
         inkscape:connector-curvature="0"
         id="path20" /></g><g
       transform="matrix(0.108773,0,0,0.108773,-27.779197,-59.093927)"
       id="g22"
       style="fill:#ffffff;fill-opacity:1;stroke:none"><path
         style="color:#000000;font-style:normal;font-variant:normal;font-weight:normal;font-stretch:normal;font-size:medium;line-height:normal;font-family:sans-serif;font-variant-ligatures:normal;font-variant-position:normal;font-variant-caps:normal;font-variant-numeric:normal;font-variant-alternates:normal;font-feature-settings:normal;text-indent:0;text-align:start;text-decoration:none;text-decoration-line:none;text-decoration-style:solid;text-decoration-color:#000000;letter-spacing:normal;word-spacing:normal;text-transform:none;writing-mode:lr-tb;direction:ltr;text-orientation:mixed;dominant-baseline:auto;baseline-shift:baseline;text-anchor:start;white-space:normal;shape-padding:0;clip-rule:nonzero;display:inline;overflow:visible;visibility:visible;opacity:1;isolation:auto;mix-blend-mode:normal;color-interpolation:sRGB;color-interpolation-filters:linearRGB;solid-color:#000000;solid-opacity:1;vector-effect:none;fill:#ffffff;fill-opacity:1;fill-rule:nonzero;stroke:none;stroke-width:9.1911602;stroke-linecap:butt;stroke-linejoin:miter;stroke-miterlimit:10;stroke-dasharray:none;stroke-dashoffset:0;stroke-opacity:1;color-rendering:auto;image-rendering:auto;shape-rendering:auto;text-rendering:auto;enable-background:accumulate"
         d="m 16259.918,2119.3398 c -5.912,0.13 -11.938,1.2116 -17.688,3.3692 0,5e-4 0,0 0,0 0,0 0,0 0,0 -322.789,121.0336 -633.79,255.359 -859.555,375.8691 -112.884,60.2558 -204.373,116.87 -266.301,167.8321 -30.964,25.481 -54.647,49.4178 -70.066,73.3261 -15.418,23.9072 -23.231,50.283 -14.451,74.9766 0,0 0,0 0,0 14.728,41.4841 56.225,66.4136 111.896,76.9824 55.679,10.5702 128.771,8.9761 220.299,-3.5488 183.056,-25.0499 439.597,-94.6926 764.551,-210.0957 l -15.383,-43.3164 c -323.247,114.7969 -578.006,183.594 -755.4,207.8691 -88.697,12.1376 -158.117,12.9259 -205.495,3.9317 -47.377,-8.9943 -69.477,-25.5726 -77.154,-47.209 v -0.01 -0.01 c -2.443,-6.8704 -1.407,-17.3302 9.772,-34.6641 11.179,-17.3339 31.843,-39.0432 60.646,-62.7461 57.607,-47.4058 147.335,-103.308 258.739,-162.7734 222.806,-118.9309 532.651,-252.8695 854.058,-373.3848 v 0 0 c 4.51,-1.6937 3.34,-1.0979 4.494,-0.3965 1.154,0.7014 4.212,3.8593 6.787,8.793 5.15,9.8673 7.625,23.3398 7.625,23.3398 l 45.426,-7.0254 c 0,0 -2.524,-18.8519 -12.299,-37.582 -4.888,-9.3651 -11.773,-19.5757 -23.66,-26.8027 -7.429,-4.5169 -16.976,-6.9491 -26.836,-6.7325 z"
         inkscape:connector-curvature="0"
         id="path24" /></g><path
       style="color:#000000;font-style:normal;font-variant:normal;font-weight:normal;font-stretch:normal;font-size:medium;line-height:normal;font-family:sans-serif;font-variant-ligatures:normal;font-variant-position:normal;font-variant-caps:normal;font-variant-numeric:normal;font-variant-alternates:normal;font-feature-settings:normal;text-indent:0;text-align:start;text-decoration:none;text-decoration-line:none;text-decoration-style:solid;text-decoration-color:#000000;letter-spacing:normal;word-spacing:normal;text-transform:none;writing-mode:lr-tb;direction:ltr;text-orientation:mixed;dominant-baseline:auto;baseline-shift:baseline;text-anchor:start;white-space:normal;shape-padding:0;clip-rule:nonzero;display:inline;overflow:visible;visibility:visible;opacity:1;isolation:auto;mix-blend-mode:normal;color-interpolation:sRGB;color-interpolation-filters:linearRGB;solid-color:#000000;solid-opacity:1;vector-effect:none;fill:#ffffff;fill-opacity:1;fill-rule:nonzero;stroke:none;stroke-width:0.99975002;stroke-linecap:butt;stroke-linejoin:miter;stroke-miterlimit:10;stroke-dasharray:none;stroke-dashoffset:0;stroke-opacity:1;color-rendering:auto;image-rendering:auto;shape-rendering:auto;text-rendering:auto;enable-background:accumulate"
       d="m 186.20564,263.52424 0.0519,5.39075 c 21.81689,0.87016 44.73507,4.00445 64.51391,8.39946 9.88943,2.19751 18.38174,4.68873 24.19336,7.21094 2.90582,1.26111 5.13832,2.54539 6.4668,3.6543 1.32848,1.1089 1.55128,1.83141 1.54102,2.08789 -0.0193,0.48413 -0.28664,1.13831 -1.3711,2.07031 -1.08445,0.932 -2.90366,1.97668 -5.3125,2.95117 -4.81767,1.94898 -11.94642,3.6629 -20.45312,4.97266 -17.01342,2.61953 -39.59221,3.68941 -61.4336,2.81836 l -0.19922,4.99609 c 22.13962,0.88295 44.9265,-0.18382 62.39258,-2.87305 8.73305,-1.34461 16.1231,-3.07643 21.56836,-5.27929 2.72263,-1.10143 4.96964,-2.31016 6.69727,-3.79492 1.72763,-1.48476 3.01751,-3.41099 3.10742,-5.66211 0.0992,-2.47978 -1.39794,-4.50895 -3.33398,-6.125 -1.93605,-1.61606 -4.51244,-3.03058 -7.67774,-4.4043 -6.33059,-2.74744 -15.02711,-5.26529 -25.10156,-7.50391 -20.14891,-4.47724 -43.48971,-8.0255 -65.64983,-8.90935 z"
       inkscape:connector-curvature="0"
       id="path26"
       sodipodi:nodetypes="ccsscccssccssscsssc" /><path
       inkscape:connector-curvature="0"
       id="path78"
       style="fill:#3370c2;fill-opacity:1;fill-rule:nonzero;stroke:none;stroke-width:0.1"
       d="m 1579.7808,389.73007 c 0,-19.363 1.35,-38.535 -2.76,-56.629 l -47.73,9.782 c 2.91,14.832 4.45,30.191 4.45,45.929 0,22.918 -3.27,45.028 -9.32,65.891 l 42.51,14.937 c 8.33,-25.074 12.85,-51.953 12.85,-79.91" /><path
       inkscape:connector-curvature="0"
       id="path80"
       style="fill:#3370c2;fill-opacity:1;fill-rule:nonzero;stroke:none;stroke-width:0.1"
       d="m 1560.6108,486.56207 -41.89,-14.711 c -13.73,36.434 -36.19,68.313 -64.75,92.809 l 20.32,29.797 c 37.95,-26.649 68.13,-64.043 86.32,-107.895" /><path
       inkscape:connector-curvature="0"
       id="path82"
       style="fill:#3370c2;fill-opacity:1;fill-rule:nonzero;stroke:none;stroke-width:0.1"
       d="m 1459.7708,603.75807 -19.41,-28.465 c -31.53,23.078 -68.68,37.726 -110.12,40.8 v 21.696 c 2.77,0.062 4.52,0.101 6.68,0.101 44.83,0 86.82,-12.449 122.85,-34.132" /><path
       inkscape:connector-curvature="0"
       id="path84"
       style="fill:#3370c2;fill-opacity:1;fill-rule:nonzero;stroke:none;stroke-width:0.1"
       d="m 1315.5108,636.94107 v -20.25 c 0,0 -0.69,0.02 -1.15,0.02 -41.93,0 -81.11,-12.254 -114.42,-33.5 l -5.07,7.711 c 34.56,25.57 76.44,42.05 120.64,46.019" /><path
       inkscape:connector-curvature="0"
       id="path86"
       style="display:inline;fill:#3370c2;fill-opacity:1;fill-rule:nonzero;stroke:none;stroke-width:0.1"
       d="m 1182.3508,580.82807 4.5,-6.832 c -31.39,-23.453 -56.58,-55.324 -72.5,-92.43 l -2.34,0.856 c 15.19,38.543 39.56,72.293 70.34,98.406" /><path
       inkscape:connector-curvature="0"
       id="path88"
       style="display:inline;fill:#ffffff;fill-opacity:1;fill-rule:nonzero;stroke:#000000;stroke-width:0.99975002;stroke-linecap:butt;stroke-miterlimit:4;stroke-dasharray:none;stroke-opacity:1"
       d="m 1302.7708,376.81607 c 3.18,-0.168 5.64,2.539 5.34,5.34 2.5,-1.625 6.32,-0.324 7.56,2.195 1.15,-2.554 5.03,-3.23 7.3,-1.668 -0.09,-2.738 2.61,-5.566 5.83,-5.351 -1.63,-2.457 -0.61,-5.774 1.97,-7.024 -2.66,-1.476 -3.27,-4.914 -1.74,-7.543 -2.78,0.094 -5.24,-2.609 -4.94,-5.406 -2.5,1.617 -6.31,0.332 -7.56,-2.207 -1.15,2.551 -5.03,3.234 -7.29,1.688 0.15,3.105 -3,5.625 -5.84,5.336 1.63,2.468 0.62,5.781 -2.34,7.082 2.65,1.507 3.71,5.25 1.71,7.558 z m 26.33,6.746 c -7.89,7.278 -19.97,6.656 -27.26,-0.691 -6.96,-7.817 -6.64,-19.645 1.26,-26.93 7.89,-7.269 19.97,-6.652 26.94,1.156 7.27,7.348 6.96,19.188 -0.94,26.465 z m 151.85,189.387 c -1.27,0.762 -2.39,0.602 -3.5,0.437 -7.97,-2.128 -18.67,-10.847 -21.57,-20.535 -0.54,-3.047 -0.82,-6.929 -0.82,-6.929 v 0 c -1.11,-10.813 -4.83,-18.391 -12.71,-26.817 l -109.38,-115.804 c -4.87,-5.043 -10.7274,-10.14088 -18.6374,-14.24288 5.9153,0.42249 10.6373,-1.24948 15.1532,-5.1506 4.4024,-4.22503 6.3642,-9.59896 6.2042,-15.06396 3.8,7.965 8.2,14.87444 12.69,19.96444 l 109.44,116.196 c 14.18,14.761 31.23,14.117 40.06,21.207 8.5,7.539 10.47,23.289 8.79,31.816 -0.19,1.223 -1.21,2.191 -2.63,3.227 l -7.6,-15.946 c -1.44,-3.672 -3.84,-5.996 -8.87,-5.109 -4.64,0.82 -9.8,3.293 -13.13,7.027 -3.65,4.16 -3.19,6.836 -0.7,11.895 l 7.6068,13.57498 c 0,0 -0.2868,0.18302 -0.3968,0.25302 z"
       sodipodi:nodetypes="ccccccccccccccccccccccccccccccccccccccc" /><path
       style="color:#000000;font-style:normal;font-variant:normal;font-weight:normal;font-stretch:normal;font-size:medium;line-height:normal;font-family:sans-serif;font-variant-ligatures:normal;font-variant-position:normal;font-variant-caps:normal;font-variant-numeric:normal;font-variant-alternates:normal;font-feature-settings:normal;text-indent:0;text-align:start;text-decoration:none;text-decoration-line:none;text-decoration-style:solid;text-decoration-color:#000000;letter-spacing:normal;word-spacing:normal;text-transform:none;writing-mode:lr-tb;direction:ltr;text-orientation:mixed;dominant-baseline:auto;baseline-shift:baseline;text-anchor:start;white-space:normal;shape-padding:0;clip-rule:nonzero;display:inline;overflow:visible;visibility:visible;opacity:1;isolation:auto;mix-blend-mode:normal;color-interpolation:sRGB;color-interpolation-filters:linearRGB;solid-color:#000000;solid-opacity:1;vector-effect:none;fill:#000000;fill-opacity:1;fill-rule:evenodd;stroke:none;stroke-width:0.375;stroke-linecap:butt;stroke-linejoin:round;stroke-miterlimit:4;stroke-dasharray:none;stroke-dashoffset:0;stroke-opacity:1;paint-order:fill markers stroke;color-rendering:auto;image-rendering:auto;shape-rendering:auto;text-rendering:auto;enable-background:accumulate"
       d="m 1454.8672,544.0918 -0.3711,-0.0586 c 1.2015,-7.58595 5.4531,-14.3503 11.7676,-18.72265 6.3145,-4.37236 14.1423,-5.97212 21.666,-4.42774 l -0.074,0.36719 c -7.4235,-1.52382 -15.1485,0.055 -21.3789,4.36914 -6.2305,4.31415 -10.4239,10.98769 -11.6094,18.47266 z"
       id="path1009"
       inkscape:connector-curvature="0" /><path
       style="display:inline;fill:none;fill-opacity:1;stroke:none;stroke-width:0.75px;stroke-linecap:butt;stroke-linejoin:miter;stroke-opacity:1"
       d="m 1336.1208,368.98407 -1.777,-3.73407 -4.5938,13.78125 -7.5,6.1875 -10.6875,1.6875 2.2083,2.49982 13.2605,0.96893 10.4062,-8.71875 -1.3167,-12.67218"
       id="path863"
       inkscape:connector-curvature="0"
       inkscape:label="path863" /></g></svg>