<?xml version="1.0" encoding="UTF-8" standalone="no"?>
<!-- Created with Inkscape (http://www.inkscape.org/) -->

<svg
   version="1.1"
   id="svg2"
   xml:space="preserve"
   width="624"
   height="624"
   viewBox="0 0 624 623.99999"
   sodipodi:docname="Icon.svg"
   inkscape:version="1.1.2 (b8e25be833, 2022-02-05)"
   inkscape:export-filename="C:\Users\rober\Desktop\favicon-32x32.png"
   inkscape:export-xdpi="4.9230771"
   inkscape:export-ydpi="4.9230771"
   xmlns:inkscape="http://www.inkscape.org/namespaces/inkscape"
   xmlns:sodipodi="http://sodipodi.sourceforge.net/DTD/sodipodi-0.dtd"
   xmlns="http://www.w3.org/2000/svg"
   xmlns:svg="http://www.w3.org/2000/svg"
   xmlns:rdf="http://www.w3.org/1999/02/22-rdf-syntax-ns#"
   xmlns:cc="http://creativecommons.org/ns#"
   xmlns:dc="http://purl.org/dc/elements/1.1/"><metadata
     id="metadata8"><rdf:RDF><cc:Work
         rdf:about=""><dc:format>image/svg+xml</dc:format><dc:type
           rdf:resource="http://purl.org/dc/dcmitype/StillImage" /></cc:Work></rdf:RDF></metadata><defs
     id="defs6" /><sodipodi:namedview
     pagecolor="#ffffff"
     bordercolor="#666666"
     borderopacity="1"
     objecttolerance="10"
     gridtolerance="10"
     guidetolerance="10"
     inkscape:pageopacity="0"
     inkscape:pageshadow="2"
     inkscape:window-width="2182"
     inkscape:window-height="1082"
     id="namedview4"
     showgrid="false"
     inkscape:pagecheckerboard="true"
     inkscape:zoom="1.3065"
     inkscape:cx="152.69805"
     inkscape:cy="257.55837"
     inkscape:window-x="221"
     inkscape:window-y="104"
     inkscape:window-maximized="0"
     inkscape:current-layer="g10"
     inkscape:snap-nodes="true"
     inkscape:snap-object-midpoints="true"
     inkscape:snap-bbox="true"
     inkscape:snap-bbox-edge-midpoints="false"
     inkscape:snap-smooth-nodes="true"
     width="100px" /><g
     id="g10"
     inkscape:groupmode="layer"
     inkscape:label="ink_ext_XXXXXX"
     transform="matrix(1.3333333,0,0,-1.3333333,0,1001.3333)"
     style="display:inline"><g
       id="g290"
       transform="translate(-14.4218,-46.566772)"
       inkscape:export-filename="C:\Users\rober\Desktop\favicon.png"
       inkscape:export-xdpi="2.4615386"
       inkscape:export-ydpi="2.4615386"><g
         transform="matrix(0.122699,0,0,0.122699,-1125.3682,18.97726)"
         id="g14"
         style="display:inline"
         inkscape:label="g14" /><path
         inkscape:connector-curvature="0"
         id="path78"
         style="fill:#3370c2;fill-opacity:1;fill-rule:nonzero;stroke:none;stroke-width:0.1"
         d="m 482.1918,467.80126 c 0,-19.363 1.35,-38.535 -2.76,-56.629 l -47.73,9.782 c 2.91,14.832 4.45,30.191 4.45,45.929 0,22.918 -3.27,45.028 -9.32,65.891 l 42.51,14.937 c 8.33,-25.074 12.85,-51.953 12.85,-79.91" /><path
         inkscape:connector-curvature="0"
         id="path80"
         style="fill:#3370c2;fill-opacity:1;fill-rule:nonzero;stroke:none;stroke-width:0.1"
         d="m 463.0218,564.63326 -41.89,-14.711 c -13.73,36.434 -36.19,68.313 -64.75,92.809 l 20.32,29.797 c 37.95,-26.649 68.13,-64.043 86.32,-107.895" /><path
         inkscape:connector-curvature="0"
         id="path82"
         style="fill:#3370c2;fill-opacity:1;fill-rule:nonzero;stroke:none;stroke-width:0.1"
         d="m 362.1818,681.82926 -19.41,-28.465 c -31.53,23.078 -68.68,37.726 -110.12,40.8 v 21.696 c 2.77,0.062 4.52,0.101 6.68,0.101 44.83,0 86.82,-12.449 122.85,-34.132" /><path
         inkscape:connector-curvature="0"
         id="path84"
         style="fill:#3370c2;fill-opacity:1;fill-rule:nonzero;stroke:none;stroke-width:0.1"
         d="m 217.9218,715.01226 v -20.25 c 0,0 -0.69,0.02 -1.15,0.02 -41.93,0 -81.11,-12.254 -114.42,-33.5 l -5.07,7.711 c 34.56,25.57 76.44,42.05 120.64,46.019" /><path
         inkscape:connector-curvature="0"
         id="path86"
         style="display:inline;fill:#3370c2;fill-opacity:1;fill-rule:nonzero;stroke:none;stroke-width:0.1"
         d="m 84.7618,658.89926 4.5,-6.832 c -31.39,-23.453 -56.58,-55.324 -72.5,-92.43 l -2.34,0.856 c 15.19,38.543 39.56,72.293 70.34,98.406" /><path
         inkscape:connector-curvature="0"
         id="path88"
         style="display:inline;fill:#ffffff;fill-opacity:1;fill-rule:nonzero;stroke:#000000;stroke-width:0.99975;stroke-linecap:butt;stroke-miterlimit:4;stroke-dasharray:none;stroke-opacity:1"
         d="m 205.1818,454.88726 c 3.18,-0.168 5.64,2.539 5.34,5.34 2.5,-1.625 6.32,-0.324 7.56,2.195 1.15,-2.554 5.03,-3.23 7.3,-1.668 -0.09,-2.738 2.61,-5.566 5.83,-5.351 -1.63,-2.457 -0.61,-5.774 1.97,-7.024 -2.66,-1.476 -3.27,-4.914 -1.74,-7.543 -2.78,0.094 -5.24,-2.609 -4.94,-5.406 -2.5,1.617 -6.31,0.332 -7.56,-2.207 -1.15,2.551 -5.03,3.234 -7.29,1.688 0.15,3.105 -3,5.625 -5.84,5.336 1.63,2.468 0.62,5.781 -2.34,7.082 2.65,1.507 3.71,5.25 1.71,7.558 z m 26.33,6.746 c -7.89,7.278 -19.97,6.656 -27.26,-0.691 -6.96,-7.817 -6.64,-19.645 1.26,-26.93 7.89,-7.269 19.97,-6.652 26.94,1.156 7.27,7.348 6.96,19.188 -0.94,26.465 z m 151.85,189.387 c -1.27,0.762 -2.39,0.602 -3.5,0.437 -7.97,-2.128 -18.67,-10.847 -21.57,-20.535 -0.54,-3.047 -0.82,-6.929 -0.82,-6.929 v 0 c -1.11,-10.813 -4.83,-18.391 -12.71,-26.817 l -109.38,-115.804 c -4.87,-5.043 -10.7274,-10.14088 -18.6374,-14.24288 5.9153,0.42249 10.6373,-1.24948 15.1532,-5.1506 4.4024,-4.22503 6.3642,-9.59896 6.2042,-15.06396 3.8,7.965 8.2,14.87444 12.69,19.96444 l 109.44,116.196 c 14.18,14.761 31.23,14.117 40.06,21.207 8.5,7.539 10.47,23.289 8.79,31.816 -0.19,1.223 -1.21,2.191 -2.63,3.227 l -7.6,-15.946 c -1.44,-3.672 -3.84,-5.996 -8.87,-5.109 -4.64,0.82 -9.8,3.293 -13.13,7.027 -3.65,4.16 -3.19,6.836 -0.7,11.895 l 7.6068,13.57498 c 0,0 -0.2868,0.18302 -0.3968,0.25302 z"
         sodipodi:nodetypes="ccccccccccccccccccccccccccccccccccccccc" /><path
         style="color:#000000;font-style:normal;font-variant:normal;font-weight:normal;font-stretch:normal;font-size:medium;line-height:normal;font-family:sans-serif;font-variant-ligatures:normal;font-variant-position:normal;font-variant-caps:normal;font-variant-numeric:normal;font-variant-alternates:normal;font-feature-settings:normal;text-indent:0;text-align:start;text-decoration:none;text-decoration-line:none;text-decoration-style:solid;text-decoration-color:#000000;letter-spacing:normal;word-spacing:normal;text-transform:none;writing-mode:lr-tb;direction:ltr;text-orientation:mixed;dominant-baseline:auto;baseline-shift:baseline;text-anchor:start;white-space:normal;shape-padding:0;clip-rule:nonzero;display:inline;overflow:visible;visibility:visible;isolation:auto;mix-blend-mode:normal;color-interpolation:sRGB;color-interpolation-filters:linearRGB;solid-color:#000000;solid-opacity:1;vector-effect:none;fill:#000000;fill-opacity:1;fill-rule:evenodd;stroke:none;stroke-width:0.375;stroke-linecap:butt;stroke-linejoin:round;stroke-miterlimit:4;stroke-dasharray:none;stroke-dashoffset:0;stroke-opacity:1;paint-order:fill markers stroke;color-rendering:auto;image-rendering:auto;shape-rendering:auto;text-rendering:auto;enable-background:accumulate"
         d="m 357.2782,622.16299 -0.3711,-0.0586 c 1.2015,-7.58595 5.4531,-14.3503 11.7676,-18.72265 6.3145,-4.37236 14.1423,-5.97212 21.666,-4.42774 l -0.074,0.36719 c -7.4235,-1.52382 -15.1485,0.055 -21.3789,4.36914 -6.2305,4.31415 -10.4239,10.98769 -11.6094,18.47266 z"
         id="path1009"
         inkscape:connector-curvature="0" /><path
         style="display:inline;fill:none;fill-opacity:1;stroke:none;stroke-width:0.75px;stroke-linecap:butt;stroke-linejoin:miter;stroke-opacity:1"
         d="m 238.5318,447.05526 -1.777,-3.73407 -4.5938,13.78125 -7.5,6.1875 -10.6875,1.6875 2.2083,2.49982 13.2605,0.96893 10.4062,-8.71875 -1.3167,-12.67218"
         id="path863"
         inkscape:connector-curvature="0"
         inkscape:label="path863" /></g></g></svg>
